<?xml version="1.0" standalone="no"?>
<!DOCTYPE svg PUBLIC "-//W3C//DTD SVG 20010904//EN"
 "http://www.w3.org/TR/2001/REC-SVG-20010904/DTD/svg10.dtd">
<svg version="1.0" xmlns="http://www.w3.org/2000/svg"
 width="1880.000000pt" height="2488.000000pt" viewBox="0 0 1880.000000 2488.000000"
 preserveAspectRatio="xMidYMid meet">
<metadata>
Created by potrace 1.15, written by Peter Selinger 2001-2017
</metadata>
<g transform="translate(0.000000,2488.000000) scale(0.100000,-0.100000)"
fill="#000000" stroke="none">
<path d="M13629 24036 c-3 -3 -33 -13 -65 -22 -86 -22 -206 -83 -309 -157 -99
-71 -371 -341 -425 -422 -18 -27 -54 -75 -80 -105 -125 -148 -248 -355 -311
-525 -17 -44 -37 -96 -46 -115 -64 -145 -179 -571 -228 -845 -7 -44 -19 -96
-24 -115 -9 -30 -35 -286 -32 -315 0 -5 5 -56 10 -112 9 -92 27 -169 66 -273
7 -19 20 -56 29 -81 22 -61 100 -195 176 -301 78 -110 440 -470 526 -524 16
-10 49 -36 75 -59 147 -130 202 -169 302 -211 77 -33 109 -41 218 -54 72 -8
99 -7 170 9 47 10 93 23 104 28 11 5 55 27 99 49 43 21 97 55 120 74 22 20 58
48 78 63 39 29 143 130 193 188 17 19 62 70 101 114 126 142 305 428 287 459
-3 6 -3 8 2 4 12 -11 31 32 81 183 79 239 98 395 90 730 -6 290 -55 725 -106
950 -11 47 -20 94 -20 104 0 49 -118 469 -140 500 -4 6 -13 28 -20 50 -7 22
-41 99 -75 170 -84 175 -172 285 -320 399 -91 69 -165 110 -221 121 -21 3 -52
14 -68 22 -30 16 -225 31 -237 19z"/>
<path d="M10220 23400 c-60 -11 -216 -55 -261 -74 -63 -26 -172 -171 -247
-326 -59 -124 -99 -259 -117 -397 -13 -109 -14 -139 0 -295 9 -95 22 -204 29
-243 8 -38 17 -92 21 -120 4 -27 13 -70 20 -95 8 -25 24 -81 36 -125 83 -304
219 -625 352 -828 196 -299 352 -405 622 -422 72 -5 255 22 275 40 9 8 22 15
29 15 21 0 102 50 174 108 52 41 85 79 133 153 35 55 64 104 64 108 0 5 10 31
21 58 47 106 91 355 103 583 11 198 -16 489 -66 705 -48 206 -87 329 -158 485
-120 269 -208 390 -377 521 -64 50 -103 71 -218 116 -87 34 -95 36 -240 38
-82 2 -170 0 -195 -5z"/>
<path d="M8165 22483 c-212 -45 -446 -217 -622 -457 -28 -39 -65 -89 -81 -112
-44 -60 -80 -132 -93 -189 -6 -27 -19 -70 -27 -95 -19 -55 -29 -443 -14 -530
5 -30 17 -100 26 -155 9 -55 21 -127 27 -160 6 -33 15 -89 20 -125 10 -77 45
-229 65 -283 8 -20 14 -44 14 -53 0 -27 61 -163 97 -217 79 -117 154 -165 288
-187 66 -11 234 5 284 26 20 9 70 27 111 40 41 14 220 97 397 184 177 88 327
160 334 160 7 0 41 21 75 48 63 47 87 83 115 176 32 106 -45 392 -200 746 -16
36 -39 90 -51 120 -20 49 -48 111 -180 395 -158 341 -233 467 -341 577 -78 78
-113 98 -174 97 -27 -1 -59 -3 -70 -6z"/>
<path d="M5680 21040 c-68 -8 -154 -32 -205 -55 -46 -22 -78 -52 -150 -144
-85 -108 -137 -198 -181 -313 -20 -51 -39 -97 -43 -103 -12 -16 -48 -170 -73
-310 -19 -111 -22 -163 -22 -350 1 -134 6 -239 13 -270 7 -27 16 -72 20 -100
12 -77 73 -247 120 -335 32 -60 121 -161 179 -203 59 -43 147 -70 237 -71 78
-1 220 27 244 48 9 7 29 16 45 20 34 8 215 116 271 161 71 57 229 218 280 285
97 127 210 313 248 407 9 23 26 61 37 85 30 64 67 184 86 279 22 111 15 276
-16 369 -61 181 -184 332 -372 455 -94 62 -128 78 -243 115 -93 30 -112 33
-255 36 -85 1 -184 -1 -220 -6z"/>
<path d="M11708 19396 c-3 -4 -127 -12 -275 -17 -292 -10 -490 -23 -623 -39
-47 -6 -128 -15 -180 -20 -177 -17 -543 -75 -750 -119 -80 -17 -158 -34 -175
-37 -43 -8 -379 -92 -433 -108 -26 -8 -119 -35 -207 -60 -206 -58 -266 -76
-400 -124 -352 -127 -490 -179 -575 -219 -30 -14 -77 -34 -105 -45 -27 -11
-54 -23 -60 -28 -5 -4 -59 -29 -120 -55 -60 -25 -130 -58 -155 -72 -25 -13
-70 -35 -100 -48 -30 -13 -93 -45 -140 -71 -47 -26 -116 -64 -155 -84 -143
-75 -302 -164 -355 -200 -30 -21 -102 -66 -160 -101 -130 -78 -320 -207 -555
-375 -99 -71 -196 -141 -215 -154 -19 -14 -51 -38 -71 -55 -20 -16 -60 -48
-88 -70 -93 -70 -314 -246 -382 -304 -36 -31 -86 -72 -110 -91 -55 -44 -300
-255 -356 -307 -23 -21 -67 -60 -98 -88 -309 -270 -895 -857 -1091 -1091 -87
-104 -219 -266 -246 -301 -16 -20 50 3 86 30 17 13 45 27 61 30 17 3 86 26
155 52 69 26 148 54 175 62 125 37 265 71 315 78 30 4 82 14 115 22 87 23 494
23 623 0 50 -10 104 -17 120 -17 52 -1 347 -80 467 -126 39 -14 95 -35 126
-45 76 -25 467 -219 554 -274 39 -24 79 -49 90 -55 11 -6 38 -24 60 -41 22
-16 57 -41 78 -55 20 -13 61 -46 90 -72 29 -26 75 -65 103 -87 40 -32 122
-117 254 -264 90 -100 234 -319 276 -420 16 -36 38 -82 49 -101 28 -46 85
-194 85 -219 0 -40 33 -35 93 16 37 30 141 91 247 143 87 42 108 52 195 90 28
12 74 32 103 46 29 13 58 24 65 24 6 0 35 12 62 25 28 14 55 25 61 25 7 0 25
7 40 15 16 8 36 15 44 15 8 0 29 7 45 16 25 13 88 36 260 93 17 5 64 19 105
31 41 11 104 30 140 40 36 11 106 32 155 46 50 14 113 32 140 40 28 8 70 18
95 24 91 19 195 44 198 46 5 3 -36 61 -69 99 -71 81 -134 234 -165 401 -34
181 -18 542 31 689 7 22 16 54 20 70 8 37 69 204 97 265 64 142 235 406 360
556 35 41 94 112 131 157 249 297 594 594 1022 877 159 106 394 228 580 302
209 83 512 168 600 168 20 0 55 4 78 10 113 26 406 12 566 -27 158 -38 276
-125 353 -260 63 -109 83 -161 114 -293 23 -100 25 -122 22 -311 -4 -199 -23
-384 -53 -509 -8 -30 -23 -95 -35 -145 -32 -129 -64 -240 -95 -320 -15 -38
-34 -90 -42 -115 -75 -230 -339 -769 -448 -915 -12 -16 -31 -48 -43 -70 -22
-44 -166 -240 -216 -295 -18 -19 -45 -53 -61 -74 -15 -21 -82 -95 -147 -163
-65 -69 -115 -129 -112 -134 3 -5 25 -9 49 -9 24 0 66 -7 92 -16 112 -36 359
-178 438 -251 17 -16 43 -36 58 -46 54 -35 297 -271 359 -350 18 -22 45 -48
62 -58 26 -16 32 -16 56 -4 35 18 385 385 520 545 152 181 310 376 345 425 17
24 69 96 116 161 122 170 276 403 339 514 29 52 59 102 66 110 20 24 191 372
220 447 14 37 34 94 45 126 10 32 23 66 29 77 10 19 15 41 64 285 81 400 63
981 -41 1335 -22 75 -98 296 -118 345 -27 65 -115 236 -136 266 -10 15 -19 30
-19 33 0 3 -23 41 -52 83 -177 266 -398 476 -688 655 -202 124 -546 259 -795
312 -38 9 -86 20 -105 26 -19 5 -51 10 -72 10 -20 0 -67 6 -105 14 -80 16
-170 23 -468 36 -121 5 -281 12 -355 16 -74 4 -138 3 -142 0z"/>
<path d="M3783 19215 c-80 -14 -164 -50 -219 -92 -95 -74 -254 -375 -283 -537
-6 -32 -16 -66 -23 -74 -22 -26 -24 -387 -3 -498 9 -49 20 -111 24 -139 20
-133 89 -300 161 -389 67 -82 69 -84 167 -118 62 -22 97 -28 127 -25 69 9 188
37 201 47 7 6 32 21 57 34 48 25 201 139 256 190 45 41 177 212 237 306 67
105 140 262 167 361 19 72 23 108 23 259 0 166 -1 178 -25 225 -94 193 -229
310 -462 403 -129 52 -279 69 -405 47z"/>
</g>
</svg>
